<?xml version="1.0" standalone="no"?>
<!DOCTYPE svg PUBLIC "-//W3C//DTD SVG 20010904//EN"
 "http://www.w3.org/TR/2001/REC-SVG-20010904/DTD/svg10.dtd">
<svg version="1.0" xmlns="http://www.w3.org/2000/svg"
 width="2670.000000pt" height="2670.000000pt" viewBox="0 0 2670.000000 2670.000000"
 preserveAspectRatio="xMidYMid meet">
<metadata>
Created by potrace 1.10, written by Peter Selinger 2001-2011
</metadata>
<g transform="translate(0.000000,2670.000000) scale(0.100000,-0.100000)"
fill="#000000" stroke="none">
<path d="M6380 26339 c-36 -4 -126 -13 -200 -18 -136 -10 -252 -27 -390 -55
-128 -27 -276 -64 -300 -76 -9 -4 -31 -11 -50 -15 -19 -4 -39 -11 -45 -15 -5
-4 -26 -11 -45 -15 -19 -4 -39 -11 -45 -14 -5 -4 -32 -16 -60 -26 -48 -17
-170 -72 -265 -120 -162 -80 -307 -171 -455 -284 -120 -91 -294 -249 -365
-332 -30 -34 -69 -79 -86 -99 -71 -82 -264 -360 -264 -380 0 -5 -6 -15 -13
-22 -11 -11 -129 -246 -157 -313 -5 -11 -18 -41 -30 -67 -77 -178 -168 -523
-200 -768 -31 -226 -40 -636 -20 -840 19 -190 74 -535 96 -603 4 -12 13 -49
20 -82 6 -33 26 -114 44 -180 17 -66 36 -140 42 -164 l10 -43 -54 -53 c-59
-57 -128 -164 -128 -196 0 -11 -7 -34 -16 -52 -23 -44 -23 -331 0 -397 9 -25
16 -61 16 -80 0 -19 7 -46 15 -60 8 -14 15 -36 15 -50 0 -14 7 -34 15 -44 8
-11 15 -28 15 -37 0 -10 8 -32 17 -51 9 -18 22 -45 30 -60 7 -14 13 -31 13
-36 0 -6 17 -38 38 -72 20 -33 42 -69 47 -78 55 -91 94 -141 195 -242 85 -86
165 -149 210 -166 39 -15 45 -24 52 -78 4 -31 12 -65 18 -75 5 -11 10 -37 10
-59 0 -22 7 -56 15 -75 8 -20 15 -52 15 -71 0 -19 4 -37 9 -40 4 -3 11 -23 15
-44 3 -22 13 -52 21 -68 8 -16 15 -34 15 -40 0 -7 7 -25 15 -40 8 -16 15 -37
15 -47 0 -11 6 -31 14 -45 25 -47 46 -100 46 -115 0 -8 7 -20 15 -27 8 -7 15
-18 15 -25 0 -6 11 -32 25 -56 13 -24 29 -53 35 -64 6 -11 19 -33 30 -50 11
-16 23 -37 26 -45 19 -42 187 -282 229 -326 5 -6 30 -35 55 -65 25 -29 57 -65
71 -79 35 -34 199 -188 243 -227 l36 -32 0 -383 c0 -211 -3 -393 -6 -405 -6
-22 -11 -23 -108 -23 -70 0 -110 -5 -130 -15 -17 -9 -55 -15 -95 -15 -44 0
-74 -5 -87 -15 -11 -8 -42 -14 -75 -15 -38 0 -61 -5 -69 -15 -8 -9 -30 -15
-59 -15 -26 0 -56 -7 -67 -15 -10 -8 -36 -15 -56 -15 -20 0 -43 -7 -52 -15 -8
-8 -32 -15 -56 -15 -27 0 -43 -5 -46 -15 -4 -10 -20 -15 -45 -15 -26 0 -42 -5
-45 -15 -4 -10 -20 -15 -45 -15 -26 0 -42 -5 -45 -15 -4 -9 -19 -15 -40 -15
-22 0 -37 -6 -40 -15 -4 -9 -19 -15 -35 -15 -17 0 -32 -6 -35 -15 -4 -8 -17
-15 -30 -15 -14 0 -27 -7 -30 -15 -4 -8 -18 -15 -34 -15 -16 0 -35 -7 -43 -15
-8 -7 -27 -17 -41 -21 -18 -4 -25 -11 -22 -21 3 -8 1 -11 -5 -8 -19 12 -61 -4
-55 -21 3 -8 2 -12 -4 -9 -16 10 -62 -6 -56 -20 3 -8 -2 -11 -13 -8 -10 2 -25
-3 -34 -11 -8 -9 -22 -16 -31 -16 -8 0 -19 -6 -23 -14 -4 -8 -17 -15 -27 -17
-26 -5 -32 -26 -9 -32 10 -2 5 -3 -11 -1 -25 4 -90 -25 -106 -47 -3 -3 -15
-10 -28 -14 -14 -4 -21 -12 -18 -20 3 -8 -2 -11 -13 -8 -10 2 -23 -3 -30 -11
-8 -9 -20 -16 -28 -16 -7 0 -16 -6 -19 -14 -3 -8 -14 -16 -25 -19 -29 -8 -23
-27 9 -27 23 -1 24 -2 10 -11 -12 -7 -23 -6 -37 3 -17 10 -25 7 -64 -25 -25
-20 -48 -37 -50 -37 -5 0 -44 -31 -78 -62 -10 -10 -21 -18 -24 -18 -3 0 -21
-16 -41 -35 -19 -19 -39 -35 -44 -35 -4 0 -27 -18 -50 -40 -23 -22 -43 -40
-45 -40 -5 0 -285 -280 -285 -285 0 -2 -11 -16 -25 -31 -14 -15 -25 -33 -25
-41 0 -8 -4 -12 -9 -8 -5 3 -24 -15 -42 -40 -18 -25 -37 -45 -42 -45 -5 0 -7
-9 -4 -19 3 -12 0 -18 -7 -15 -9 4 -86 -85 -86 -100 0 -3 -13 -20 -30 -38 -16
-18 -30 -38 -30 -44 0 -7 -7 -14 -15 -18 -8 -3 -15 -12 -15 -21 0 -8 -5 -15
-10 -15 -6 0 -15 -10 -20 -22 -20 -44 -63 -113 -76 -121 -8 -4 -14 -15 -14
-23 0 -8 -7 -26 -16 -39 -9 -13 -13 -28 -10 -33 3 -6 -4 -12 -15 -15 -17 -5
-20 -12 -17 -30 3 -16 1 -24 -6 -21 -12 4 -56 -66 -56 -90 0 -9 -4 -16 -9 -16
-5 0 -14 -12 -20 -27 -6 -16 -22 -46 -36 -68 -13 -22 -24 -49 -25 -61 0 -11
-4 -24 -9 -30 -4 -5 -11 -21 -15 -36 -5 -20 -1 -32 16 -48 l22 -20 -22 0 c-16
0 -22 6 -22 21 0 30 -24 18 -28 -14 -2 -15 -7 -27 -13 -27 -5 0 -12 -18 -15
-40 -4 -22 -13 -45 -20 -51 -8 -6 -14 -24 -14 -40 0 -16 -4 -29 -10 -29 -5 0
-13 -18 -16 -40 -4 -22 -10 -40 -15 -40 -4 0 -11 -20 -15 -45 -3 -25 -10 -45
-15 -45 -4 0 -11 -21 -15 -47 -4 -27 -11 -51 -16 -54 -5 -3 -11 -25 -14 -50
-3 -24 -10 -49 -15 -56 -6 -6 -13 -38 -16 -70 -3 -32 -10 -63 -14 -69 -5 -6
-12 -40 -16 -75 -3 -35 -13 -70 -20 -77 -9 -10 -13 -37 -12 -87 1 -57 -2 -78
-15 -90 -13 -14 -16 -42 -16 -179 0 -103 -4 -166 -11 -173 -6 -6 -13 -47 -16
-92 l-6 -81 2444 3 c1949 2 2443 5 2441 15 -1 6 5 12 13 12 8 0 14 -6 13 -12
-2 -10 186 -13 910 -15 l912 -2 0 134 c0 73 3 140 6 149 5 14 -18 16 -221 16
-223 0 -227 0 -246 23 -10 12 -18 34 -19 48 0 15 -7 32 -15 39 -8 7 -15 23
-15 36 0 13 -6 38 -14 56 -8 18 -30 85 -51 148 -20 63 -40 123 -46 132 -5 10
-9 24 -9 33 0 8 -6 29 -14 47 -8 18 -24 64 -36 102 -11 38 -26 78 -32 90 -6
11 -13 30 -14 41 -4 36 -34 129 -44 139 -5 5 -10 19 -10 30 0 12 -7 34 -15 50
-8 15 -15 36 -15 45 0 9 -7 29 -15 45 -8 15 -15 39 -15 51 0 13 -7 31 -16 39
-8 9 -18 33 -20 53 -3 21 -9 42 -14 47 -6 6 -10 22 -10 36 0 14 -7 35 -15 46
-8 10 -15 33 -15 50 0 17 -7 37 -15 44 -8 7 -15 27 -15 45 0 18 -7 38 -15 45
-8 7 -15 27 -15 45 0 18 -7 38 -15 45 -26 21 -19 91 16 155 17 31 28 63 25 71
-3 8 1 14 10 14 8 0 17 13 20 29 4 17 12 32 20 35 8 3 14 15 14 26 0 12 7 28
15 36 8 9 15 26 15 39 0 12 7 25 15 29 8 3 15 16 15 30 0 13 7 26 15 30 8 3
15 16 15 30 0 13 7 26 15 30 8 3 15 12 15 20 0 8 6 27 14 43 31 60 48 112 42
122 -4 6 0 11 9 11 9 0 18 12 21 29 4 17 12 32 20 35 8 3 14 17 14 31 0 14 4
25 10 25 5 0 12 11 16 25 3 13 12 29 20 36 8 6 14 22 14 35 0 13 4 24 9 24 6
0 16 12 23 27 7 15 46 50 85 77 40 28 112 82 160 120 49 38 113 89 143 113 30
24 61 48 68 53 6 6 42 34 80 62 37 28 71 57 77 63 5 7 39 34 75 60 36 26 67
50 70 54 3 3 25 22 50 40 25 19 61 49 80 67 43 39 96 50 111 22 8 -16 22 -18
94 -17 65 1 88 -3 100 -15 12 -12 36 -16 90 -16 56 0 74 -4 79 -15 4 -11 21
-15 63 -15 35 -1 66 -6 77 -15 11 -8 36 -15 57 -15 22 0 39 -6 42 -14 3 -8 21
-14 46 -14 23 0 51 -8 63 -16 12 -9 35 -16 51 -16 16 0 35 -7 43 -15 9 -8 26
-15 39 -15 12 0 25 -7 29 -15 4 -12 15 -14 44 -9 34 5 40 3 45 -15 3 -14 13
-21 30 -21 14 0 28 -7 31 -16 4 -12 16 -15 40 -12 25 3 37 -1 45 -14 6 -10 18
-18 27 -18 8 0 22 -7 31 -15 10 -11 25 -14 49 -9 29 5 33 4 28 -10 -4 -11 2
-19 19 -25 14 -5 28 -15 32 -20 3 -6 14 -11 24 -11 10 0 24 -7 32 -16 7 -8 20
-13 29 -11 9 2 22 -4 29 -14 6 -11 17 -19 25 -19 8 0 16 -7 20 -15 3 -8 12
-15 20 -15 9 0 35 -13 58 -29 93 -63 139 -91 149 -91 5 0 9 -4 9 -9 0 -5 27
-26 59 -45 32 -20 62 -43 65 -51 3 -8 12 -15 20 -15 16 0 50 -26 107 -82 20
-21 42 -38 48 -38 6 0 30 -21 53 -46 45 -49 90 -78 103 -66 5 4 5 1 1 -6 -9
-15 128 -157 143 -148 6 4 9 1 5 -7 -3 -9 19 -40 55 -78 34 -35 61 -68 61 -74
0 -6 13 -22 30 -35 16 -14 29 -29 30 -33 0 -4 15 -22 32 -39 18 -18 33 -37 33
-43 0 -6 10 -21 22 -34 13 -14 35 -43 50 -65 15 -23 38 -51 50 -63 13 -12 23
-27 23 -34 0 -6 14 -28 30 -49 17 -21 30 -41 30 -45 0 -4 14 -24 30 -45 17
-21 30 -45 30 -53 0 -9 6 -20 13 -24 7 -4 24 -32 37 -60 14 -29 28 -53 32 -53
5 0 8 -9 8 -19 0 -11 7 -26 15 -35 8 -8 15 -19 15 -25 0 -6 20 -50 45 -98 25
-48 45 -95 45 -104 0 -10 7 -24 15 -33 8 -8 15 -24 15 -35 0 -11 7 -26 15 -35
8 -8 15 -26 15 -40 0 -13 7 -31 15 -40 8 -8 15 -23 15 -34 0 -11 7 -25 15 -32
8 -7 15 -27 15 -45 0 -18 7 -38 15 -45 10 -8 15 -30 15 -61 0 -32 5 -51 15
-56 7 -5 16 -24 19 -43 2 -19 9 -51 15 -70 6 -19 11 -54 11 -78 0 -29 5 -45
15 -48 11 -5 15 -23 15 -79 0 -52 4 -76 15 -85 11 -9 15 -35 15 -102 0 -59 5
-99 15 -117 11 -23 12 -34 2 -55 l-12 -26 -497 0 c-273 0 -498 -3 -500 -7 -2
-5 -2 -72 0 -150 l3 -141 665 -1 664 -1 0 47 c0 27 -7 80 -15 118 -8 40 -15
123 -15 195 0 100 -3 130 -16 149 -13 18 -16 43 -15 101 2 59 -1 80 -13 90
-11 8 -16 30 -16 69 0 35 -6 65 -15 77 -14 18 -14 17 -15 -15 0 -25 -3 -32
-11 -24 -7 7 -7 22 2 51 14 47 4 136 -14 129 -8 -3 -13 12 -14 45 -1 27 -6 55
-11 61 -5 7 -13 33 -16 59 -4 26 -11 50 -15 53 -5 2 -12 21 -15 40 -4 19 -11
35 -15 35 -5 0 -11 20 -14 45 -6 59 -12 63 -41 36 l-24 -23 -7 22 c-8 27 0 37
18 22 8 -7 17 -9 20 -5 12 11 8 51 -6 65 -8 7 -17 30 -21 51 -4 20 -11 37 -16
37 -6 0 -10 11 -10 24 0 13 -7 29 -15 36 -8 7 -15 19 -15 26 0 8 -9 31 -20 51
-11 21 -20 43 -20 50 0 7 -4 13 -9 13 -5 0 -11 14 -14 30 -4 18 -13 30 -22 30
-9 0 -14 4 -11 9 8 12 -42 111 -55 111 -5 0 -9 9 -9 20 0 11 -4 20 -10 20 -5
0 -10 -9 -10 -20 0 -13 -7 -20 -20 -20 -13 0 -20 7 -20 19 0 12 7 18 17 17 23
-1 29 36 10 56 -8 8 -18 24 -21 36 -4 12 -14 22 -22 22 -8 0 -12 4 -9 10 6 9
-32 71 -47 78 -5 2 -8 12 -8 23 0 11 -7 22 -15 25 -8 4 -15 15 -15 25 0 11 -7
22 -15 25 -8 4 -15 12 -15 20 0 7 -6 17 -12 21 -15 9 -36 41 -44 66 -4 9 -10
17 -14 17 -4 0 -27 27 -51 60 -46 64 -55 70 -62 43 -2 -10 -2 -3 0 15 2 17 0
32 -5 32 -5 0 -24 21 -43 48 -18 26 -48 62 -66 80 -18 18 -33 35 -33 37 0 5
-310 315 -315 315 -2 0 -16 11 -31 25 -15 14 -33 25 -40 25 -8 0 -14 6 -14 14
0 8 -9 17 -19 21 -11 3 -22 12 -25 20 -7 18 -33 20 -39 3 -2 -7 -8 -9 -13 -5
-5 4 -2 12 6 17 26 16 -3 35 -30 20 -16 -9 -25 -9 -33 -1 -8 8 -5 11 11 11 43
0 27 18 -73 85 -33 22 -65 46 -71 54 -6 8 -18 11 -27 8 -11 -4 -14 -2 -10 8 3
9 -4 19 -18 25 -35 15 -63 33 -72 48 -4 6 -16 12 -26 12 -11 0 -21 7 -25 15
-3 8 -12 15 -21 15 -8 0 -15 4 -15 10 0 5 -11 12 -25 16 -13 3 -29 12 -36 20
-6 8 -20 14 -30 14 -11 0 -19 4 -19 9 0 14 -81 53 -97 47 -8 -4 -11 -1 -7 5
11 18 -18 29 -71 25 -27 -2 -35 -1 -17 1 39 5 42 20 5 29 -15 4 -34 13 -41 21
-7 7 -20 13 -28 13 -9 0 -22 7 -30 15 -9 8 -24 15 -35 15 -11 0 -27 7 -35 15
-9 8 -26 15 -39 15 -12 0 -25 7 -29 15 -3 9 -18 15 -34 15 -16 0 -35 7 -42 15
-7 8 -25 15 -40 15 -16 0 -30 7 -34 16 -4 11 -16 15 -40 13 -22 -2 -39 3 -51
15 -12 12 -28 16 -47 14 -21 -3 -32 0 -39 14 -7 13 -21 18 -53 18 -27 0 -48 6
-57 16 -8 10 -25 14 -49 13 -25 -2 -43 3 -54 14 -12 11 -34 17 -65 17 -31 0
-53 5 -61 15 -9 10 -32 15 -75 15 -41 0 -65 4 -67 12 -3 8 -34 14 -89 16 -48
3 -87 9 -91 16 -4 7 -49 12 -115 14 -59 2 -114 8 -120 14 -10 8 -13 102 -13
407 l0 397 43 34 c96 77 348 341 425 445 45 61 85 115 90 120 4 6 11 17 15 25
9 18 22 39 61 100 26 39 77 140 177 345 16 33 29 69 29 81 0 11 7 29 15 40 8
10 15 28 15 40 0 11 7 29 15 40 8 10 15 30 15 44 0 14 7 38 15 54 8 15 15 42
15 60 1 17 7 49 15 71 8 22 15 54 15 71 0 17 7 51 15 74 8 23 15 57 15 74 0
38 9 52 40 65 79 34 249 182 328 286 44 57 133 200 157 253 14 28 36 76 50
105 14 30 25 61 25 69 0 8 7 23 15 34 8 10 15 30 15 44 0 14 7 38 15 54 8 15
15 41 15 57 0 17 7 46 15 67 12 28 16 76 16 207 0 146 -2 178 -20 227 -41 114
-96 194 -174 253 -36 27 -38 32 -34 69 2 23 27 129 54 236 59 232 81 322 93
387 5 26 16 86 25 133 18 99 42 269 55 390 11 110 11 532 0 635 -15 139 -50
342 -69 395 -4 14 -16 52 -26 85 -43 145 -145 370 -219 480 -116 175 -259 325
-411 434 -83 59 -327 191 -354 191 -6 0 -19 4 -29 9 -43 24 -148 51 -272 71
-36 6 -84 15 -108 20 -23 6 -69 10 -103 10 -69 0 -88 14 -128 97 -84 170 -327
424 -541 565 -77 50 -246 148 -257 148 -2 0 -23 8 -46 19 -62 27 -184 72 -226
83 -201 52 -282 67 -406 79 -55 5 -136 14 -181 19 -92 11 -239 11 -334 -1z
m1845 -2682 c72 -55 312 -286 375 -362 130 -156 214 -286 310 -485 76 -156 90
-192 116 -290 35 -131 45 -183 63 -320 17 -132 19 -227 22 -1040 2 -647 -1
-916 -9 -970 -44 -278 -47 -295 -81 -397 -17 -51 -31 -99 -31 -108 0 -8 -4
-23 -9 -33 -19 -35 -41 -85 -41 -95 0 -9 -25 -71 -40 -97 -5 -8 -30 -58 -56
-110 -53 -105 -193 -319 -257 -393 -65 -75 -290 -303 -309 -313 -10 -5 -37
-26 -60 -47 -52 -45 -175 -137 -184 -137 -3 0 -26 -13 -51 -30 -24 -16 -48
-30 -53 -30 -4 0 -10 -4 -12 -9 -4 -11 -272 -141 -291 -141 -9 0 -18 -3 -20
-8 -3 -4 -38 -18 -79 -31 -40 -13 -81 -28 -91 -33 -10 -5 -37 -13 -60 -18
-117 -25 -135 -33 -193 -86 -33 -30 -69 -57 -81 -60 -13 -3 -23 -9 -23 -13 0
-6 -63 -36 -135 -64 -139 -53 -325 -44 -470 24 -78 36 -106 54 -185 119 -50
42 -76 53 -185 81 -22 6 -47 14 -56 19 -9 5 -33 12 -53 15 -20 4 -39 11 -42
16 -3 5 -13 9 -22 9 -9 0 -30 7 -46 15 -15 8 -33 15 -39 15 -12 0 -279 130
-287 140 -3 3 -34 24 -70 45 -81 48 -177 116 -269 190 -55 45 -299 295 -346
355 -58 76 -164 232 -187 275 -8 17 -38 73 -65 125 -27 52 -58 118 -68 145
-10 28 -22 55 -26 60 -7 10 -71 206 -89 275 -18 64 -32 144 -42 235 -5 50 -14
98 -19 108 -6 12 -10 290 -10 745 1 593 4 751 17 857 8 72 19 139 24 150 5 11
12 35 15 54 9 44 48 131 95 211 70 119 214 246 350 310 86 40 105 48 160 65
30 9 69 21 85 27 17 6 56 14 88 19 33 5 64 12 69 16 18 10 188 22 488 33 293
10 506 30 620 55 36 9 74 15 84 15 11 0 44 7 75 16 31 8 79 21 106 29 104 28
200 58 210 66 5 5 18 9 30 9 12 0 30 7 41 15 10 8 25 15 32 15 14 0 29 6 152
62 67 30 78 36 193 97 87 46 86 45 192 115 82 54 125 85 210 149 115 87 311
276 368 355 38 52 43 51 152 -31z m1551 -2224 c10 -37 -3 -315 -14 -322 -5 -3
-13 -25 -17 -49 -4 -24 -13 -56 -21 -70 -8 -15 -14 -35 -14 -44 0 -9 -4 -19
-9 -22 -5 -3 -12 -17 -15 -32 -4 -14 -18 -43 -31 -65 -14 -21 -25 -43 -25 -49
0 -24 -159 -239 -177 -240 -24 0 -25 47 -3 101 12 30 29 72 37 94 8 22 21 53
29 68 8 16 14 36 14 46 0 9 6 25 14 36 7 11 16 31 19 45 3 14 15 50 27 80 12
30 50 139 85 243 35 103 67 192 70 197 11 18 24 11 31 -17z m-6036 -67 c0 -12
6 -30 14 -41 7 -11 16 -31 19 -45 6 -28 23 -81 42 -125 7 -16 19 -48 28 -70
36 -96 79 -202 93 -228 8 -16 14 -37 14 -47 0 -9 7 -23 15 -30 8 -7 15 -18 15
-25 0 -8 7 -26 15 -42 57 -111 68 -164 35 -171 -23 -4 -176 210 -206 288 -3 8
-19 41 -35 73 -16 32 -29 67 -29 77 0 10 -7 31 -15 46 -8 16 -15 39 -15 52 0
13 -6 35 -13 50 -14 29 -24 253 -12 272 10 16 35 -8 35 -34z m1716 -3282 c101
-54 179 -94 186 -94 4 0 31 -11 60 -24 79 -35 162 -66 176 -66 7 0 20 -4 30
-9 31 -15 119 -41 140 -41 11 0 27 -6 34 -12 29 -28 107 -88 113 -88 4 0 27
-13 52 -30 24 -16 48 -30 54 -30 5 0 20 -6 32 -14 75 -47 265 -88 412 -88 149
0 350 48 445 107 19 12 42 24 50 28 26 12 53 30 103 70 29 24 73 46 115 59 37
11 82 26 100 34 18 8 41 14 50 14 10 0 26 6 37 14 11 7 35 17 54 21 18 4 56
18 85 32 28 14 65 30 81 37 67 28 185 90 185 98 0 15 38 8 44 -9 8 -20 7 -631
-1 -690 -3 -24 -10 -43 -15 -43 -10 0 -54 -36 -120 -95 -15 -14 -29 -25 -32
-25 -8 0 -84 -59 -120 -93 -16 -15 -32 -27 -36 -27 -4 0 -19 -10 -32 -22 -33
-29 -89 -75 -158 -129 -30 -24 -59 -47 -65 -51 -5 -4 -30 -24 -55 -43 -25 -19
-52 -41 -60 -49 -8 -7 -43 -34 -77 -58 -34 -25 -69 -53 -78 -62 -9 -9 -44 -37
-77 -63 -34 -26 -82 -66 -107 -90 -33 -30 -55 -43 -76 -43 -16 0 -39 -7 -49
-15 -11 -8 -36 -15 -55 -15 -20 -1 -47 -7 -61 -15 -33 -19 -139 -19 -164 0
-11 8 -36 15 -56 15 -20 0 -45 7 -56 15 -10 8 -33 15 -51 15 -24 0 -44 12 -83
50 -28 27 -79 71 -113 97 -34 26 -64 50 -67 53 -12 13 -99 80 -104 80 -3 0
-18 11 -33 25 -15 14 -48 41 -73 61 -25 19 -58 46 -75 59 -26 22 -102 82 -130
103 -5 4 -41 32 -80 62 -38 30 -74 57 -80 62 -5 4 -29 23 -51 42 -23 20 -44
36 -48 36 -4 0 -17 10 -29 23 -12 12 -33 31 -47 40 -14 10 -41 29 -60 43 l-35
25 -1 362 c-1 199 0 365 3 370 7 11 17 9 69 -19z m-574 -604 c-13 -12 -19 -27
-16 -38 4 -10 3 -13 -3 -6 -4 6 -16 14 -27 17 -14 6 -16 10 -7 21 6 7 8 16 4
19 -3 4 11 7 32 7 l39 0 -22 -20z m116 -2 c-4 -31 -23 -33 -36 -3 -11 23 -10
25 14 25 20 0 25 -4 22 -22z m3538 7 c6 -16 -35 -57 -48 -48 -5 2 -8 17 -8 34
0 24 4 29 25 29 14 0 28 -7 31 -15z m124 -27 c0 -5 -10 -8 -22 -6 -15 2 -24
11 -26 26 -4 23 -3 23 22 7 14 -10 26 -22 26 -27z m-4230 -58 c0 -5 -9 -10
-19 -10 -11 0 -23 5 -26 10 -4 6 5 10 19 10 14 0 26 -4 26 -10z m4590 0 c0 -5
-9 -10 -19 -10 -11 0 -23 5 -26 10 -4 6 5 10 19 10 14 0 26 -4 26 -10z m-4170
-25 c0 -8 -7 -15 -15 -15 -16 0 -20 12 -8 23 11 12 23 8 23 -8z m-498 -7 c-9
-9 -15 -9 -24 0 -9 9 -7 12 12 12 19 0 21 -3 12 -12z m4841 -2 c3 -8 18 -16
34 -19 27 -4 27 -4 -4 -6 -21 0 -40 6 -53 19 -19 19 -19 20 -1 20 10 0 21 -6
24 -14z m-571 -42 c-5 -11 -7 -26 -5 -34 4 -12 3 -12 -5 -1 -5 7 -15 16 -21
20 -7 5 -6 14 5 30 19 27 42 14 26 -15z m-4387 16 c-3 -5 -15 -10 -26 -10 -10
0 -19 5 -19 10 0 6 12 10 26 10 14 0 23 -4 19 -10z m4283 -17 c-19 -46 -28
-49 -28 -10 0 30 4 37 20 37 18 0 18 -3 8 -27z m-3443 -105 c16 -16 62 -54
100 -85 39 -30 80 -63 93 -74 12 -10 26 -19 30 -19 4 0 33 -21 63 -48 29 -26
81 -67 114 -92 33 -24 65 -49 70 -55 6 -6 60 -49 120 -95 61 -46 113 -88 116
-93 4 -5 25 -21 47 -36 113 -74 140 -96 154 -125 8 -17 29 -60 46 -96 18 -36
32 -70 32 -77 0 -7 7 -16 16 -21 9 -5 17 -21 17 -36 0 -15 6 -30 13 -33 8 -3
14 -15 14 -27 0 -12 7 -31 15 -42 8 -10 15 -26 15 -35 0 -9 7 -22 15 -29 8 -7
15 -21 15 -32 0 -10 7 -21 15 -24 8 -4 15 -17 15 -30 0 -14 7 -27 15 -30 8 -4
15 -15 15 -25 0 -20 40 -102 52 -107 4 -2 8 -14 8 -27 0 -12 7 -28 15 -35 8
-7 15 -20 15 -30 0 -10 7 -23 15 -30 8 -7 15 -26 15 -42 0 -16 6 -31 15 -34 8
-4 15 -17 15 -30 0 -14 7 -27 15 -30 17 -7 22 -89 6 -98 -5 -4 -12 -24 -16
-45 -4 -22 -13 -45 -21 -52 -8 -6 -14 -26 -14 -44 0 -18 -7 -38 -15 -45 -8 -7
-15 -27 -15 -44 0 -17 -7 -40 -15 -50 -8 -11 -15 -30 -15 -42 0 -12 -7 -35
-15 -50 -8 -16 -15 -36 -15 -45 0 -9 -7 -30 -15 -45 -8 -16 -15 -39 -15 -51 0
-12 -4 -24 -9 -27 -5 -3 -12 -21 -15 -40 -4 -20 -13 -48 -21 -63 -8 -15 -15
-37 -15 -49 0 -11 -5 -25 -10 -30 -6 -6 -17 -35 -25 -65 -27 -95 -33 -112 -60
-187 -14 -40 -24 -76 -21 -80 3 -5 -4 -21 -15 -38 -10 -16 -19 -39 -19 -52 0
-12 -7 -34 -16 -47 -12 -18 -15 -38 -11 -72 3 -27 3 -40 1 -30 -3 9 -9 17 -13
17 -10 0 -51 -122 -51 -149 0 -10 -7 -24 -15 -31 -8 -7 -15 -25 -15 -39 0 -15
-7 -36 -15 -47 -8 -10 -15 -30 -15 -44 0 -14 -9 -35 -19 -47 l-19 -23 -1254 0
c-689 0 -1625 0 -2079 0 l-826 0 -13 25 c-11 21 -11 27 3 43 13 15 17 40 17
118 1 69 5 105 15 118 8 11 14 43 14 84 0 49 4 68 15 74 12 6 16 24 16 62 0
40 4 55 16 60 13 5 16 17 12 60 -4 47 -2 55 14 59 14 4 18 15 18 45 0 26 5 42
15 46 9 3 15 19 15 41 0 20 7 43 15 51 8 9 15 29 15 45 0 17 7 37 15 45 8 9
15 25 15 37 0 12 7 31 15 41 8 11 15 30 15 42 0 12 7 27 15 34 8 7 15 23 15
35 0 12 7 28 15 35 8 7 15 18 15 25 0 7 13 37 30 68 16 31 30 63 30 71 0 7 7
19 15 26 8 7 15 19 15 27 0 8 7 21 15 29 8 9 15 24 15 35 0 10 5 19 10 19 6 0
10 6 10 13 0 7 9 20 20 30 11 9 20 26 20 36 0 11 4 22 9 25 14 9 81 113 81
126 0 7 11 21 25 32 14 11 25 30 25 43 0 17 4 23 14 19 9 -3 17 5 23 23 6 16
22 40 36 53 15 14 27 30 27 36 0 5 20 32 45 59 25 27 44 54 41 61 -3 8 1 11 9
7 9 -3 18 3 22 15 5 11 54 68 111 126 56 59 102 111 102 116 0 6 4 10 8 10 5
0 58 47 118 105 60 58 113 105 117 105 10 0 53 37 103 88 18 17 38 32 45 32
16 0 61 49 54 60 -3 4 4 6 15 3 12 -3 22 1 26 11 3 9 14 16 25 16 10 0 22 6
26 13 9 14 37 32 71 47 12 5 22 14 22 19 0 5 11 12 25 15 14 4 25 11 25 16 0
6 6 10 14 10 7 0 19 7 26 15 7 8 21 15 32 15 10 0 21 6 24 14 3 8 16 17 30 20
13 4 24 11 24 16 0 6 8 10 19 10 10 0 24 7 31 15 7 8 20 15 30 15 10 0 23 7
30 15 7 8 20 15 30 15 10 0 23 7 30 15 7 8 21 15 31 15 9 0 24 6 31 13 7 8 26
17 41 21 15 3 27 11 27 16 0 6 16 10 35 10 22 0 38 6 41 15 4 8 17 15 30 15
14 0 27 7 30 15 4 10 20 15 45 15 26 0 42 5 45 15 4 8 16 15 28 15 12 0 31 7
42 15 10 8 31 15 45 15 14 0 34 7 45 15 10 8 38 15 60 15 28 0 44 5 48 15 3 9
18 15 38 15 18 0 47 7 63 16 18 10 50 16 83 15 39 -2 54 2 58 13 5 12 22 16
75 16 53 0 71 4 75 15 5 12 26 15 106 15 92 0 100 2 105 20 5 18 11 19 42 14
19 -4 49 -20 66 -36z m3683 35 c-10 -2 -28 -2 -40 0 -13 2 -5 4 17 4 22 1 32
-1 23 -4z m1050 -120 c-10 -2 -28 -2 -40 0 -13 2 -5 4 17 4 22 1 32 -1 23 -4z
m-5748 -59 c0 -2 -16 -4 -36 -4 -19 0 -33 4 -30 8 5 8 66 4 66 -4z m-378 -42
c-14 -14 -18 -15 -20 -3 -4 15 17 33 30 25 4 -3 0 -13 -10 -22z m5823 -2 c18
-19 17 -20 -3 -20 -15 0 -22 6 -22 20 0 11 2 20 3 20 2 0 12 -9 22 -20z
m-5985 -32 c0 -19 -1 -20 -12 -6 -7 9 -24 19 -38 21 -18 3 -14 5 13 6 32 1 37
-2 37 -21z m6580 -18 c0 -5 -7 -10 -15 -10 -8 0 -15 5 -15 10 0 6 7 10 15 10
8 0 15 -4 15 -10z m110 -53 c0 -2 -9 -12 -20 -22 -19 -18 -20 -17 -20 3 0 15
6 22 20 22 11 0 20 -2 20 -3z m-4219 -313 c14 -13 16 -21 8 -35 -12 -24 -29
-25 -29 -2 0 9 -7 25 -17 35 -15 17 -15 18 2 18 10 0 27 -7 36 -16z m1549 9
c0 -10 -32 -43 -42 -43 -4 0 -8 11 -8 25 0 20 5 25 25 25 14 0 25 -3 25 -7z
m-145 -33 c-3 -5 -13 -10 -21 -10 -8 0 -12 5 -9 10 3 6 13 10 21 10 8 0 12 -4
9 -10z m-1108 -71 c22 -8 24 -12 13 -19 -33 -21 -81 -6 -65 20 8 13 17 13 52
-1z m952 2 c17 -11 5 -31 -19 -31 -21 0 -34 15 -25 30 8 12 25 13 44 1z m-867
-23 c-6 -6 -19 -7 -29 -3 -17 7 -17 8 2 15 24 9 41 2 27 -12z m772 16 c26 -10
18 -24 -14 -24 -29 0 -38 9 -23 23 8 9 17 9 37 1z m3307 -37 c-1 -12 -15 -9
-19 4 -3 6 1 10 8 8 6 -3 11 -8 11 -12z m-3891 -22 c14 -1 33 -3 43 -4 10 0
17 -7 15 -13 -7 -20 -73 -26 -109 -11 -27 11 -30 15 -19 28 8 10 20 13 29 9 9
-4 27 -8 41 -9z m429 2 c13 -17 5 -27 -24 -27 -31 0 -38 11 -17 26 22 17 27
17 41 1z m-94 -27 c-19 -21 -35 -18 -35 6 0 9 10 14 27 14 25 0 26 -1 8 -20z
m-137 -22 c39 13 50 0 22 -28 -23 -23 -29 -24 -64 -10 -16 6 -26 17 -26 30 0
17 3 18 19 9 13 -9 26 -9 49 -1z m-238 -68 c0 -13 -7 -20 -20 -20 -19 0 -19 1
-2 19 22 25 22 25 22 1z m471 -23 c-5 -5 -22 -7 -36 -3 -26 7 -27 8 -9 27 16
18 18 18 36 2 12 -10 15 -20 9 -26z m-4439 1 c-9 -9 -15 -9 -24 0 -9 9 -7 12
12 12 19 0 21 -3 12 -12z m4076 5 c-10 -2 -28 -2 -40 0 -13 2 -5 4 17 4 22 1
32 -1 23 -4z m110 -80 c5 -32 -20 -29 -35 3 -11 23 -10 25 10 22 14 -2 23 -11
25 -25z m502 24 c0 -2 -9 -12 -20 -22 -19 -18 -20 -17 -20 3 0 15 6 22 20 22
11 0 20 -2 20 -3z m-560 -32 c0 -8 -7 -15 -15 -15 -16 0 -20 12 -8 23 11 12
23 8 23 -8z m17 -77 c-2 -13 -4 -5 -4 17 -1 22 1 32 4 23 2 -10 2 -28 0 -40z
m4413 -13 c0 -8 -4 -15 -10 -15 -5 0 -10 7 -10 15 0 8 5 15 10 15 6 0 10 -7
10 -15z m-3930 -15 c0 -14 -7 -20 -22 -20 -20 0 -21 1 -3 20 10 11 20 20 22
20 1 0 3 -9 3 -20z m-80 -9 c0 -6 -4 -12 -9 -15 -13 -8 -42 4 -35 15 7 12 44
12 44 0z m3818 -8 c-10 -2 -28 -2 -40 0 -13 2 -5 4 17 4 22 1 32 -1 23 -4z
m450 -293 c12 0 13 -3 5 -11 -16 -16 -33 -2 -32 24 1 17 2 18 6 5 2 -10 12
-18 21 -18z m-9078 -35 c0 -34 -1 -34 -18 -17 -17 15 -17 19 -4 35 21 23 22
22 22 -18z m9138 -55 c15 0 15 -1 0 -12 -9 -7 -19 -22 -21 -33 -2 -11 -3 -8
-2 8 1 21 -3 27 -18 27 -20 0 -20 0 -1 21 16 18 19 19 22 5 2 -9 11 -16 20
-16z m-9330 -7 c-10 -2 -28 -2 -40 0 -13 2 -5 4 17 4 22 1 32 -1 23 -4z m-228
-343 c0 -14 -6 -20 -22 -19 -17 1 -19 2 -5 6 9 2 17 11 17 19 0 8 2 14 5 14 3
0 5 -9 5 -20z m109 -189 c8 -5 5 -13 -9 -26 -20 -18 -20 -18 -20 21 0 26 3 34
9 25 5 -7 14 -17 20 -20z m5031 -6 c0 -8 -7 -15 -15 -15 -8 0 -15 7 -15 15 0
8 7 15 15 15 8 0 15 -7 15 -15z m90 -97 c0 -6 -9 -7 -22 -3 -13 4 -31 7 -40 7
-16 -1 -16 0 0 17 15 15 20 16 40 3 12 -8 22 -19 22 -24z m4670 -5 c-1 -24 -2
-26 -11 -10 -5 9 -7 22 -4 27 10 17 15 11 15 -17z m-9840 -78 c0 -8 -4 -15
-10 -15 -5 0 -10 7 -10 15 0 8 5 15 10 15 6 0 10 -7 10 -15z m-307 -212 c-7
-2 -13 -20 -13 -39 0 -25 -4 -34 -16 -34 -11 0 -14 5 -10 16 3 9 6 27 6 40 0
18 5 24 23 23 12 0 16 -3 10 -6z m5562 -22 c3 -5 1 -12 -4 -15 -13 -8 -42 4
-35 15 7 12 31 12 39 0z m-5468 -53 c-2 -13 -4 -5 -4 17 -1 22 1 32 4 23 2
-10 2 -28 0 -40z m5361 45 c-10 -2 -28 -2 -40 0 -13 2 -5 4 17 4 22 1 32 -1
23 -4z m4812 -13 c0 -13 -7 -20 -20 -20 -19 0 -19 1 -2 19 22 25 22 25 22 1z
m-4872 -107 c-10 -2 -28 -2 -40 0 -13 2 -5 4 17 4 22 1 32 -1 23 -4z m-5238
-70 c-1 -24 -2 -26 -11 -10 -5 9 -7 22 -4 27 10 17 15 11 15 -17z m-113 -17
c-4 -9 -11 -16 -17 -16 -11 0 -14 33 -3 44 11 10 26 -11 20 -28z m10124 3 c10
-6 8 -9 -8 -9 -17 0 -23 6 -23 23 0 16 3 18 9 8 5 -7 15 -17 22 -22z m184
-119 c3 -5 -3 -10 -15 -10 -12 0 -18 5 -15 10 3 6 10 10 15 10 5 0 12 -4 15
-10z m-4907 -42 c-2 -13 -7 -23 -13 -23 -5 0 -11 10 -13 23 -2 15 2 22 13 22
11 0 15 -7 13 -22z m4828 -44 c-5 -13 -10 -14 -18 -6 -6 6 -8 18 -4 28 5 13
10 14 18 6 6 -6 8 -18 4 -28z m-4851 -294 c18 -19 17 -20 -3 -20 -15 0 -22 6
-22 20 0 11 2 20 3 20 2 0 12 -9 22 -20z m5010 -42 l12 -37 -23 16 c-24 16
-30 37 -17 69 5 14 8 15 11 3 3 -7 10 -31 17 -51z m-10630 13 c-3 -10 1 -24
10 -31 17 -14 11 -30 -11 -30 -10 0 -14 13 -14 46 0 29 4 43 10 39 6 -4 8 -15
5 -24z m5553 18 c-2 -6 -8 -10 -13 -10 -5 0 -11 4 -13 10 -2 6 4 11 13 11 9 0
15 -5 13 -11z m102 -99 c22 -22 26 -40 9 -40 -11 0 -48 40 -49 53 0 13 20 7
40 -13z m-5650 -126 c0 -9 10 -14 27 -14 26 0 26 0 8 -20 -18 -20 -18 -20 -37
-1 -19 21 -26 67 -8 56 6 -3 10 -13 10 -21z m2422 -46 c-9 -9 -12 -7 -12 12 0
19 3 21 12 12 9 -9 9 -15 0 -24z m7178 -91 c18 -3 14 -5 -12 -6 -33 -1 -38 2
-38 21 0 19 1 20 13 6 6 -9 23 -19 37 -21z m-9596 -100 c-21 -12 -39 6 -30 29
6 16 8 15 27 -2 18 -16 18 -19 3 -27z m6596 11 c0 -15 -25 -8 -37 11 -11 17
-10 18 13 7 13 -6 24 -14 24 -18z m2825 12 c18 -19 17 -20 -3 -20 -15 0 -22 6
-22 20 0 11 2 20 3 20 2 0 12 -9 22 -20z m1224 7 c14 -17 4 -27 -26 -27 -16 0
-23 6 -23 20 0 23 31 27 49 7z m-8309 -16 c0 -6 -4 -12 -9 -15 -13 -8 -42 4
-35 15 7 12 44 12 44 0z m540 -7 c0 -17 -22 -14 -28 4 -2 7 3 12 12 12 9 0 16
-7 16 -16z m450 8 c0 -13 -12 -22 -22 -16 -10 6 -1 24 13 24 5 0 9 -4 9 -8z
m-562 -9 c-10 -2 -28 -2 -40 0 -13 2 -5 4 17 4 22 1 32 -1 23 -4z m1350 0
c-10 -2 -28 -2 -40 0 -13 2 -5 4 17 4 22 1 32 -1 23 -4z"/>
</g>
</svg>
