<?xml version="1.0" standalone="no"?>
<!DOCTYPE svg PUBLIC "-//W3C//DTD SVG 20010904//EN"
 "http://www.w3.org/TR/2001/REC-SVG-20010904/DTD/svg10.dtd">
<svg version="1.0" xmlns="http://www.w3.org/2000/svg"
 width="512.000000pt" height="512.000000pt" viewBox="0 0 512.000000 512.000000"
 preserveAspectRatio="xMidYMid meet">

<g transform="translate(0.000000,512.000000) scale(0.100000,-0.100000)"
fill="#000000" stroke="none">
<path d="M1901 4945 c-177 -39 -347 -171 -429 -335 -69 -139 -74 -178 -70
-610 l4 -375 27 -80 c38 -115 91 -199 182 -291 89 -90 173 -142 293 -182 67
-22 94 -26 212 -26 122 0 143 3 215 28 192 66 343 199 430 380 68 144 70 157
70 591 0 375 -1 393 -22 460 -52 163 -175 309 -323 383 -47 23 -116 49 -155
57 -90 19 -346 19 -434 0z m414 -160 c172 -45 305 -179 350 -352 20 -75 21
-353 3 -353 -42 0 -146 24 -171 38 -16 9 -39 37 -52 62 -31 60 -80 106 -134
125 -53 18 -313 21 -372 3 -53 -15 -115 -70 -143 -127 -13 -25 -37 -54 -53
-63 -25 -14 -129 -38 -170 -38 -20 0 -18 278 2 355 44 169 178 304 348 350 74
20 315 20 392 0z m-50 -631 c9 -4 24 -23 35 -44 58 -113 150 -168 318 -185
l62 -7 0 -96 c0 -123 -20 -218 -64 -307 -64 -129 -178 -232 -316 -284 -86 -32
-255 -36 -340 -7 -158 53 -273 152 -339 289 -47 98 -61 166 -61 303 l0 102 63
7 c167 17 259 71 317 185 11 21 25 40 32 43 19 8 273 8 293 1z"/>
<path d="M1585 2709 c-438 -63 -817 -394 -939 -820 -42 -146 -46 -215 -46
-720 l0 -480 25 -24 24 -25 935 0 936 0 6 -27 c30 -133 67 -207 146 -289 37
-38 86 -76 127 -98 124 -65 124 -65 854 -66 l658 0 24 24 c14 14 25 33 25 44
0 10 18 375 40 812 22 437 40 802 40 812 0 11 -11 30 -25 43 -24 24 -28 25
-185 25 -88 0 -160 4 -160 8 0 7 45 169 91 325 l20 67 145 0 c141 0 146 1 169
25 33 32 33 78 0 110 -24 25 -26 25 -213 25 -166 0 -192 -2 -211 -17 -15 -13
-36 -72 -77 -213 -30 -107 -64 -225 -75 -262 l-20 -68 -158 0 -158 0 -12 39
c-21 71 -101 220 -162 300 -183 244 -463 408 -763 450 -92 13 -972 13 -1061 0z
m1070 -164 c320 -56 575 -246 723 -540 l41 -80 -71 -5 c-59 -4 -73 -9 -90 -30
-18 -23 -19 -33 -13 -157 l7 -133 -128 0 c-148 0 -225 -15 -316 -61 -84 -43
-178 -134 -221 -217 -32 -61 -42 -90 -61 -174 -4 -17 -13 -28 -23 -28 -80 0
-189 -89 -212 -173 -8 -28 -11 -68 -8 -97 l6 -50 -444 0 -445 0 0 175 c0 173
0 176 -25 200 -15 16 -36 25 -55 25 -19 0 -40 -9 -55 -25 -25 -24 -25 -27 -25
-200 l0 -175 -241 0 -240 0 4 463 c3 438 5 466 26 547 99 379 407 665 791 735
115 20 956 20 1075 0z m1620 -817 c-3 -18 -18 -332 -35 -698 -17 -366 -33
-675 -36 -687 l-4 -23 -275 0 -275 0 37 47 c45 60 90 156 100 218 8 48 8 48
62 62 142 36 220 170 179 305 -17 59 -88 133 -145 152 -26 9 -55 16 -65 16
-11 0 -20 10 -24 28 -19 84 -29 113 -61 174 -49 94 -145 183 -246 228 l-77 35
0 72 c0 39 -3 78 -6 87 -6 14 37 16 434 16 l441 0 -4 -32z m-904 -304 c65 -18
148 -73 184 -120 33 -44 75 -133 75 -161 l0 -23 -470 0 -470 0 0 23 c0 39 57
144 101 187 46 44 99 75 164 96 61 19 347 18 416 -2z m484 -489 c33 -32 33
-78 0 -110 l-24 -25 -671 0 -671 0 -24 25 c-16 15 -25 36 -25 55 0 19 9 40 25
55 l24 25 671 0 671 0 24 -25z m-227 -332 c-30 -109 -106 -201 -206 -250 -55
-26 -65 -28 -235 -31 -158 -4 -184 -2 -245 17 -121 38 -211 129 -246 249 l-15
52 479 0 478 0 -10 -37z"/>
</g>
</svg>
