<?xml version="1.0" standalone="no"?>
<!DOCTYPE svg PUBLIC "-//W3C//DTD SVG 20010904//EN"
 "http://www.w3.org/TR/2001/REC-SVG-20010904/DTD/svg10.dtd">
<svg version="1.0" xmlns="http://www.w3.org/2000/svg"
 width="512.000000pt" height="512.000000pt" viewBox="0 0 512.000000 512.000000"
 preserveAspectRatio="xMidYMid meet">

<g transform="translate(0.000000,512.000000) scale(0.100000,-0.100000)"
fill="#000000" stroke="none">
<path d="M2365 5114 c-309 -34 -552 -93 -795 -196 -483 -204 -907 -565 -1184
-1008 -295 -470 -419 -991 -376 -1570 32 -428 171 -828 411 -1187 107 -159
166 -232 308 -376 214 -219 431 -376 706 -512 362 -179 702 -258 1115 -259
525 -1 1005 142 1440 430 441 292 814 769 982 1254 171 496 187 1087 43 1590
-274 957 -1108 1679 -2095 1816 -103 14 -477 26 -555 18z m359 -484 c543 -45
1064 -307 1409 -709 329 -383 510 -865 511 -1356 0 -314 -55 -574 -179 -844
-183 -399 -445 -697 -813 -925 -603 -372 -1356 -411 -1997 -102 -624 301
-1053 880 -1152 1555 -22 154 -22 435 1 594 52 362 178 666 401 962 429 571
1117 883 1819 825z m2083 -1157 c38 -84 44 -233 13 -318 -45 -123 -52 -166
-48 -266 4 -72 10 -108 26 -140 26 -52 23 -59 -7 -19 -36 49 -51 107 -51 193
0 66 7 101 40 203 49 151 53 231 16 337 -13 37 -22 67 -19 67 2 0 16 -26 30
-57z m-4465 -25 c-36 -90 -35 -179 6 -328 54 -194 53 -286 -4 -373 -33 -50
-40 -43 -15 14 36 83 36 133 -1 280 -51 206 -45 347 20 447 23 35 22 27 -6
-40z m4668 -568 c-28 -123 -107 -228 -189 -250 -58 -15 -116 2 -136 40 -23 45
-18 53 18 26 52 -40 87 -43 141 -11 80 47 150 151 163 242 4 27 9 39 11 28 2
-10 -1 -44 -8 -75z m-4825 -113 c36 -45 100 -92 138 -101 32 -8 93 17 110 46
17 26 25 22 19 -9 -15 -84 -134 -107 -217 -41 -55 43 -125 182 -125 247 0 17
9 2 23 -39 12 -36 36 -82 52 -103z m79 -173 c25 -24 17 -57 -16 -75 -39 -21
-78 47 -46 79 17 17 44 15 62 -4z m4655 2 c7 -8 11 -27 9 -43 -3 -25 -7 -28
-38 -28 -31 0 -35 3 -38 28 -4 32 13 57 38 57 10 0 23 -6 29 -14z m-4483 -21
c16 -13 17 -16 4 -25 -22 -14 -66 -12 -79 4 -10 11 -8 17 6 25 25 15 46 13 69
-4z m4319 5 c31 -12 26 -24 -14 -38 -35 -12 -68 5 -58 32 7 18 34 21 72 6z
m-4327 -115 c12 -14 22 -38 22 -52 l0 -26 -20 26 c-42 54 -129 47 -196 -15
-56 -52 -83 -96 -105 -172 -10 -34 -18 -52 -18 -41 -3 78 77 242 137 281 62
41 144 40 180 -1z m4429 10 c37 -19 61 -41 86 -78 37 -54 68 -141 66 -186 -1
-18 -5 -12 -14 21 -27 99 -86 172 -168 208 -54 24 -92 18 -134 -22 -22 -21
-23 -21 -23 -2 0 11 7 30 16 42 33 48 96 54 171 17z m-4496 -130 c37 -80 22
-216 -42 -400 -36 -105 -35 -159 5 -271 14 -39 19 -60 10 -50 -24 34 -56 129
-61 186 -4 42 1 75 21 135 61 192 72 322 37 416 -16 42 -17 48 -4 37 9 -7 24
-31 34 -53z m4428 23 c-45 -87 -37 -219 23 -407 24 -76 29 -107 26 -155 -5
-62 -36 -156 -63 -192 -8 -10 -3 10 11 45 14 35 28 94 31 130 5 57 1 79 -26
156 -75 218 -80 357 -15 435 35 41 38 38 13 -12z"/>
<path d="M2415 4390 c-360 -30 -728 -179 -1010 -411 -88 -71 -257 -245 -317
-324 -390 -518 -476 -1226 -221 -1815 208 -480 610 -849 1108 -1018 783 -265
1652 33 2119 728 338 503 398 1164 157 1730 -234 550 -739 961 -1328 1079
-179 36 -331 45 -508 31z m633 -272 c9 -9 12 -224 12 -907 0 -858 5 -1174 31
-1817 11 -274 10 -294 -6 -322 -44 -75 -147 -68 -180 12 -10 24 -11 74 -5 219
5 103 14 415 21 694 12 483 11 507 -6 517 -61 37 -66 48 -90 241 -38 299 -6
773 75 1105 34 140 75 256 93 264 22 8 43 6 55 -6z m-747 -409 c-4 -369 -3
-377 45 -359 20 8 21 18 28 167 12 302 28 528 37 537 5 5 12 6 16 2 4 -4 10
-162 13 -352 5 -358 6 -363 46 -364 28 0 32 37 40 369 6 240 12 346 20 348 6
2 14 -3 17 -11 3 -8 13 -163 22 -343 9 -180 20 -335 25 -343 4 -8 18 -15 31
-15 l24 0 -4 358 c-4 326 -3 357 13 357 9 0 16 -2 16 -4 0 -2 11 -71 24 -152
52 -313 74 -591 57 -704 -21 -140 -98 -253 -191 -281 l-41 -13 6 -220 c19
-731 26 -971 36 -1231 5 -159 12 -296 15 -304 8 -25 -16 -90 -43 -110 -40 -33
-88 -28 -129 13 -40 40 -38 15 -24 376 8 222 21 693 34 1258 5 195 4 213 -12
218 -91 27 -163 97 -202 195 -24 60 -25 74 -24 239 1 142 8 224 38 435 20 143
39 266 41 273 3 8 11 12 18 9 9 -3 11 -79 8 -348z"/>
</g>
</svg>
