<?xml version="1.0" standalone="no"?>
<!DOCTYPE svg PUBLIC "-//W3C//DTD SVG 20010904//EN"
 "http://www.w3.org/TR/2001/REC-SVG-20010904/DTD/svg10.dtd">
<svg version="1.0" xmlns="http://www.w3.org/2000/svg"
 width="512.000000pt" height="512.000000pt" viewBox="0 0 512.000000 512.000000"
 preserveAspectRatio="xMidYMid meet">

<g transform="translate(0.000000,512.000000) scale(0.100000,-0.100000)"
fill="#000000" stroke="none">
<path d="M2321 5109 c-290 -22 -688 -139 -941 -277 -401 -218 -704 -493 -949
-862 -110 -166 -150 -239 -220 -403 -161 -376 -233 -798 -202 -1191 42 -520
213 -966 533 -1389 95 -125 336 -362 473 -464 371 -277 789 -449 1230 -504
128 -16 502 -17 625 -1 695 91 1320 455 1737 1012 141 189 288 462 366 680
172 480 192 1067 53 1547 -49 168 -88 266 -175 438 -326 646 -888 1118 -1569
1320 -308 91 -612 121 -961 94z m557 -399 c647 -95 1189 -458 1545 -1036 94
-153 197 -396 241 -572 49 -192 61 -299 61 -552 -1 -252 -13 -351 -70 -568
-61 -231 -206 -531 -348 -720 -23 -31 -45 -61 -50 -67 -4 -6 -17 1 -33 20 -15
17 -63 72 -108 124 -154 177 -366 338 -581 442 -114 55 -310 129 -341 129 -8
0 -47 -25 -87 -55 -148 -113 -308 -172 -494 -182 -224 -12 -424 49 -602 183
l-73 54 -61 -16 c-82 -21 -264 -95 -357 -146 -216 -118 -393 -264 -556 -460
-42 -51 -80 -94 -85 -96 -11 -5 -93 100 -153 197 -131 212 -212 396 -265 603
-59 229 -65 282 -66 563 0 231 3 274 23 380 60 311 162 567 322 809 90 136
152 212 273 334 346 352 750 561 1220 632 174 26 468 26 645 0z"/>
<path d="M2380 4075 c-132 -30 -248 -79 -350 -148 -66 -45 -186 -163 -235
-232 -212 -297 -244 -692 -86 -1031 212 -451 691 -671 1138 -522 107 35 234
110 330 194 232 204 370 569 333 880 -31 263 -169 516 -364 671 -95 75 -233
145 -343 174 -103 28 -328 35 -423 14z"/>
</g>
</svg>
